<svg xmlns="http://www.w3.org/2000/svg" xmlns:xlink="http://www.w3.org/1999/xlink" width="32" height="32" class="icon" p-id="1922" t="1696255389449" version="1.1" viewBox="0 0 1024 1024"><path d="M435.2 704c-9 0-17.8-3.8-23.8-10.6l-115.2-128c-11.8-13.2-10.8-33.4 2.4-45.2 13.2-11.8 33.4-10.8 45.2 2.4l90.6 100.6 245.2-291.8c11.4-13.6 31.6-15.2 45-4 13.6 11.4 15.2 31.6 4 45l-268.8 320c-6 7-14.6 11.2-24 11.4-0.2 0.2-0.4 0.2-0.6 0.2z" p-id="1923"/><path d="M800 928H224c-70.6 0-128-57.4-128-128V224c0-70.6 57.4-128 128-128h576c70.6 0 128 57.4 128 128v576c0 70.6-57.4 128-128 128zM224 160c-35.2 0-64 28.8-64 64v576c0 35.2 28.8 64 64 64h576c35.2 0 64-28.8 64-64V224c0-35.2-28.8-64-64-64H224z" p-id="1924"/></svg>